# xmcd
# 
# Track frame offsets:
#     150
#     20225
#     42228
#     65009
#     80567
#     113026
#     135050
#     150905
#     171312
#     189483
#     212102
#     227642
#     252376
#     272838
#     297143
# 
# Disc length: 4292
# 
# Revision: 0
# Processed by: cddbd v1.5.2PL0 Copyright (c) Steve Scherf et al.
# Submitted via: fre:ac v1.0.17
# 
DISCID=d110c20f
DTITLE=The Buddaheads - Wish I Had Everything I Want
DYEAR=2011
DGENRE=Blues
TTITLE0=123 Old John
TTITLE1=Blink Of An Eye
TTITLE2=Goin' Out Of My Mind
TTITLE3=Tattoo Girl
TTITLE4=Mountain Of Blues
TTITLE5=This Love Of Mine
TTITLE6=Head First Into The Wall
TTITLE7=You And Me
TTITLE8=No Part Of It
TTITLE9=She'l Never Know
TTITLE10=Jack Of All Trades
TTITLE11=Evil
TTITLE12=Trailer Queen
TTITLE13=Wish I Had Everything I Want
TTITLE14=Psychedelic Highway 
EXTD=
EXTT0=
EXTT1=
EXTT2=
EXTT3=
EXTT4=
EXTT5=
EXTT6=
EXTT7=
EXTT8=
EXTT9=
EXTT10=
EXTT11=
EXTT12=
EXTT13=
EXTT14=
PLAYORDER=
